<svg xmlns="http://www.w3.org/2000/svg" viewBox="0 0 800 1000" role="img" aria-labelledby="t d"><title id="t">VIOLET placeholder</title><desc id="d">Abstract placeholder art. Replace with your character image.</desc><defs><linearGradient id="g" x1="0" y1="0" x2="1" y2="1"><stop stop-color="#9A83FF"/><stop offset="1" stop-color="#FFB7D5"/></linearGradient><filter id="w"><feTurbulence baseFrequency=".009" numOctaves="2" seed="7"/><feDisplacementMap in="SourceGraphic" scale="36"/></filter></defs><rect width="800" height="1000" fill="#2E2439"/><circle cx="610" cy="160" r="250" fill="url(#g)" opacity=".9"/><path d="M111 846C191 640 153 400 340 271c140-97 316 10 344 187 40 249-75 400-206 449-148 55-257 2-367-61Z" fill="url(#g)" filter="url(#w)"/><path d="M238 406 284 162l119 172M509 330l96-167 42 264" fill="none" stroke="#F6F0E5" stroke-width="34" stroke-linejoin="round" opacity=".9"/><circle cx="340" cy="480" r="26" fill="#2E2439"/><circle cx="526" cy="480" r="26" fill="#2E2439"/><path d="M366 614c45 40 89 40 137 0" fill="none" stroke="#2E2439" stroke-width="24" stroke-linecap="round"/><text x="50" y="82" fill="#F6F0E5" font-family="Arial Black, sans-serif" font-size="44">VIOLET</text><text x="52" y="128" fill="#F6F0E5" opacity=".65" font-family="Arial, sans-serif" font-size="22" letter-spacing="6">CANINE SPIRIT</text><text x="50" y="950" fill="#F6F0E5" opacity=".7" font-family="Arial, sans-serif" font-size="20">PLACEHOLDER — REPLACE THIS SVG</text></svg>